<svg xmlns="http://www.w3.org/2000/svg" viewBox="0 0 32 32" shape-rendering="crispEdges"><rect width="32" height="32" fill="#1a1520"/><rect x="14" y="14" width="4" height="5" fill="#4a3020"/><rect x="10" y="12" width="3" height="2" fill="#5a4030"/><rect x="19" y="12" width="3" height="2" fill="#5a4030"/><rect x="6" y="14" width="4" height="2" fill="#5a4030"/><rect x="22" y="14" width="4" height="2" fill="#5a4030"/><rect x="8" y="18" width="3" height="2" fill="#5a4030"/><rect x="21" y="18" width="3" height="2" fill="#5a4030"/><rect x="12" y="20" width="2" height="3" fill="#5a4030"/><rect x="18" y="20" width="2" height="3" fill="#5a4030"/><rect x="11" y="10" width="2" height="2" fill="#f0f0f0"/><rect x="15" y="10" width="2" height="2" fill="#f0f0f0"/><rect x="13" y="12" width="2" height="2" fill="#f0f0f0"/><rect x="17" y="12" width="2" height="2" fill="#f0f0f0"/><rect x="19" y="10" width="2" height="2" fill="#f0f0f0"/><rect x="21" y="12" width="2" height="2" fill="#f0f0f0"/><rect x="9" y="10" width="2" height="2" fill="#f0f0f0"/><rect x="7" y="12" width="2" height="2" fill="#f0f0f0"/></svg>